<svg width="671" height="527" viewBox="0 0 671 527" fill="none" xmlns="http://www.w3.org/2000/svg">
<ellipse cx="348" cy="47.5" rx="82" ry="15.5" fill="black"/>
<path d="M236.697 429.928L242.444 453.592C243.293 457.089 246.881 459.177 250.341 458.188C252.849 457.472 254.662 455.291 254.908 452.694L262.256 375.08C262.394 373.617 263.622 372.5 265.092 372.5C266.688 372.5 267.973 371.188 267.939 369.592L267.643 355.354C267.551 350.96 269.185 346.706 272.194 343.504L275.367 340.126C280.27 334.906 283 328.013 283 320.851V55.8729C283 55.3037 282.832 54.7473 282.516 54.2737C282.18 53.7707 281.695 53.3858 281.129 53.1735L278 52L276.842 51.7105C275.084 51.2709 273.69 49.916 273.192 48.1729C273.065 47.7281 273 47.2653 273 46.8027C273 45.6379 273.408 44.51 274.154 43.6152L274.65 43.0203C275.212 42.3459 275.894 41.7813 276.661 41.355L277.733 40.7596C279.231 39.9273 280.872 39.3837 282.571 39.1572L287.5 38.5L299.5 37.5L304.5 37L312 35.5L315.561 35.1043C316.096 35.0449 316.5 34.5932 316.5 34.0554C316.5 33.4725 316.027 33 315.445 33H305H290.5L280.648 33.9852C277.225 34.3275 273.847 35.0221 270.567 36.0579L266 37.5L258.746 40.9541C256.585 41.9834 254.5 43.1666 252.508 44.4946L236 55.5L203.863 79.6025C199.995 82.5034 196.762 86.1656 194.364 90.3635C192.795 93.1088 191.601 96.0518 190.814 99.1142L187.5 112L184.5 130.5L173 294L172 302C172 305.293 172.325 308.626 172.971 311.855L173 312L178.5 328.5L184.5 342.5L191 356.5L232.737 420.748C234.566 423.562 235.905 426.666 236.697 429.928Z" fill="#FD8B0D" stroke="black"/>
<path d="M455.26 430.527L449.188 455.156C448.296 458.772 444.413 460.765 440.955 459.382C438.832 458.533 437.357 456.573 437.13 454.298L429.307 376.073C429.133 374.328 427.665 373 425.912 373C424.028 373 422.5 371.472 422.5 369.588V352.316C422.5 349.945 421.27 347.743 419.25 346.5C417.23 345.257 416 343.055 416 340.684V331.5L412.05 54.9652C412.022 53.0595 413.56 51.5 415.466 51.5H415.655C416.206 51.5 416.745 51.3369 417.203 51.0312C417.72 50.6869 418.107 50.1803 418.303 49.5915L418.339 49.4816C418.446 49.1626 418.5 48.8286 418.5 48.4923V47.2325C418.5 46.085 418.315 44.945 417.952 43.8564L417.68 43.0402C417.561 42.6817 417.394 42.3407 417.184 42.0262C416.737 41.3559 416.109 40.8263 415.373 40.4991L413.037 39.4608C412.347 39.1542 411.632 38.9079 410.899 38.7248L406 37.5L397 36L391 35L389.395 34.7325C388.467 34.5778 387.527 34.5 386.586 34.5H370.487C369.942 34.5 369.5 34.0581 369.5 33.513C369.5 32.9578 369.958 32.5119 370.513 32.5263L405.451 33.4338C407.147 33.4779 408.836 33.6673 410.5 34L413 34.5L419.659 36.3645C423.539 37.4509 427.273 39.0021 430.78 40.9846L437 44.5L447.5 51.5L457.5 58.5L487.926 82.0107C489.632 83.3293 491.129 84.8986 492.366 86.6653C493.45 88.2149 494.325 89.9017 494.965 91.6814L498.5 101.5L501.5 114.5L503 130L512.686 288.858C512.895 292.277 513.454 295.666 514.356 298.97L514.5 299.5L514.894 301.665C515.297 303.884 515.5 306.134 515.5 308.389C515.5 310.46 515.329 312.526 514.989 314.568L514.712 316.23C514.238 319.071 513.52 321.867 512.565 324.584L501 357.5C500.337 359.49 499.389 361.373 498.187 363.091L496.5 365.5L484.5 385L459.445 421.241C457.498 424.057 456.08 427.204 455.26 430.527Z" fill="#FD8B0D" stroke="black"/>
<path d="M275.104 89.5138L204.617 91.9612C203.929 91.9851 203.308 92.3836 203 93L202.935 93.1308C202.646 93.7085 202.421 94.3161 202.264 94.9427C202.089 95.6449 202 96.366 202 97.0898V97.5L203.984 219.998C203.994 220.66 204.126 221.315 204.372 221.931L204.578 222.446C204.853 223.132 205.329 223.72 205.945 224.13C206.312 224.375 206.72 224.551 207.15 224.65L265 238L268.399 238.755C269.116 238.915 269.865 238.854 270.547 238.581C271.475 238.21 272.21 237.475 272.581 236.547L272.713 236.218C272.903 235.743 273.01 235.239 273.03 234.727L278.485 92.3788C278.495 92.1275 278.469 91.8762 278.408 91.6322C278.159 90.6355 277.358 89.8715 276.35 89.67L275.889 89.5778C275.631 89.5261 275.367 89.5046 275.104 89.5138Z" fill="black" stroke="black"/>
<path d="M418.396 89.5138L488.883 91.9612C489.571 91.9851 490.192 92.3836 490.5 93L490.565 93.1308C490.854 93.7085 491.079 94.3161 491.236 94.9427C491.411 95.6449 491.5 96.366 491.5 97.0898V97.5L489.516 219.998C489.506 220.66 489.374 221.315 489.128 221.931L488.922 222.446C488.647 223.132 488.171 223.72 487.555 224.13C487.188 224.375 486.78 224.551 486.35 224.65L428.5 238L425.101 238.755C424.384 238.915 423.635 238.854 422.953 238.581C422.025 238.21 421.29 237.475 420.919 236.547L420.787 236.218C420.597 235.743 420.49 235.239 420.47 234.727L415.015 92.3788C415.005 92.1275 415.031 91.8762 415.092 91.6322C415.341 90.6355 416.142 89.8715 417.15 89.67L417.611 89.5778C417.869 89.5261 418.133 89.5046 418.396 89.5138Z" fill="black" stroke="black"/>
<path d="M211.5 309L194.537 298.903C191.859 297.309 189.418 295.346 187.287 293.073L184.17 289.748C183.397 288.923 182.784 287.961 182.364 286.911C182.122 286.305 181.946 285.675 181.839 285.032L181.694 284.166C181.565 283.39 181.5 282.605 181.5 281.818V280.563C181.5 279.859 181.614 279.159 181.836 278.491C181.945 278.164 182.08 277.846 182.239 277.54L188.5 265.5L188.926 264.861C189.298 264.303 189.846 263.885 190.482 263.673C190.825 263.558 191.185 263.507 191.546 263.52L218.5 264.5L219.408 264.651C220.768 264.878 222.024 265.524 223 266.5L242.854 282.608C246.992 285.965 249.123 291.208 248.5 296.5L247.5 317V319.849C247.5 320.568 247.141 321.24 246.542 321.639C246.189 321.874 245.773 322 245.349 322H244.104C243.373 322 242.649 321.872 241.963 321.623L237.5 320L211.5 309Z" fill="black" stroke="black"/>
<path d="M479.5 309L496.463 298.903C499.141 297.309 501.582 295.346 503.713 293.073L506.83 289.748C507.603 288.923 508.216 287.961 508.636 286.911C508.878 286.305 509.054 285.675 509.161 285.032L509.306 284.166C509.435 283.39 509.5 282.605 509.5 281.818V280.563C509.5 279.859 509.386 279.159 509.164 278.491C509.055 278.164 508.92 277.846 508.761 277.54L502.5 265.5L502.074 264.861C501.702 264.303 501.154 263.885 500.518 263.673C500.175 263.558 499.815 263.507 499.454 263.52L472.5 264.5L471.592 264.651C470.232 264.878 468.976 265.524 468 266.5L448.146 282.608C444.008 285.965 441.877 291.208 442.5 296.5L443.5 317V319.849C443.5 320.568 443.859 321.24 444.458 321.639C444.811 321.874 445.227 322 445.651 322H446.896C447.627 322 448.351 321.872 449.037 321.623L453.5 320L479.5 309Z" fill="black" stroke="black"/>
<circle cx="210.5" cy="284.5" r="10" fill="white" stroke="black"/>
<circle cx="10.5" cy="10.5" r="10" transform="matrix(-1 0 0 1 490 274)" fill="white" stroke="black"/>
<circle cx="233" cy="300" r="7.5" fill="white" stroke="black"/>
<circle cx="8" cy="8" r="7.5" transform="matrix(-1 0 0 1 465 292)" fill="white" stroke="black"/>
<path d="M204.5 428.5V377.414L234.5 424.5L236.5 429.5L242.5 454.5L245 457.5L248 458.5L251.5 458L253 457L254.5 454.5L255.5 445.5L262 375.5L263 373.5L264.5 372.5H266L267 372L267.5 371L268 369L267.5 355.5L268 351L269.5 347.5L270.5 345.5L272 344L273 343L274.5 341.5L276.5 339.5L278 337.5L279.5 335L281 332L282 329L282.5 327.5H416V343.5L417 344.5L418 345.5L420 347L420.5 347.5L422 349.5L422.5 370.5L423 372L424.5 373H426.5L428 373.5L429 374.5L429.5 376L437 454.5L439 458.5L441.5 459.5H445L447.5 458L449.5 454.5L451 448L452 443L453.5 437L455 431L456.5 427L457.5 424.5L459.5 421L484 385.767V439L482.5 452H482H479H478L477.5 452.5V453.273V472.5V474V474.5L476.5 475H466V473.5V471V469.5L465 468.5H464L463.5 469.5L463 471L462 473.5L461.5 475L460.5 476H458L229.5 475H227L226 474L221 464L220.5 461.5L219.5 461H218.5L218 462.5L218.5 473L218 474H215H208.5L205.5 473.5L207 445.5L204.5 428.5Z" fill="black"/>
</svg>
